<?xml version="1.0" standalone="no"?>
<!DOCTYPE svg PUBLIC "-//W3C//DTD SVG 20010904//EN"
 "http://www.w3.org/TR/2001/REC-SVG-20010904/DTD/svg10.dtd">
<svg version="1.0" xmlns="http://www.w3.org/2000/svg"
 width="16.000000pt" height="16.000000pt" viewBox="0 0 16.000000 16.000000"
 preserveAspectRatio="xMidYMid meet">
<metadata>
Created by potrace 1.16, written by Peter Selinger 2001-2019
</metadata>
<g transform="translate(0.000000,16.000000) scale(0.100000,-0.100000)"
fill="#000000" stroke="none">
<path d="M0 141 c0 -11 4 -21 10 -23 5 -1 16 -21 25 -43 11 -27 13 -36 4 -27
-23 21 -39 14 -39 -18 l0 -30 81 0 81 0 -6 31 c-3 17 -6 42 -6 55 0 15 -6 24
-15 24 -8 0 -15 -5 -15 -11 0 -8 -5 -8 -15 1 -20 17 -45 5 -45 -20 0 -26 25
-36 47 -19 14 12 16 12 11 -1 -7 -21 -48 -19 -62 2 -8 13 -8 23 0 36 10 16 20
18 82 21 15 1 22 7 22 21 0 18 -7 20 -80 20 -72 0 -80 -2 -80 -19z"/>
<path d="M0 80 c0 -5 5 -10 10 -10 6 0 10 5 10 10 0 6 -4 10 -10 10 -5 0 -10
-4 -10 -10z"/>
</g>
</svg>
